<svg xmlns="http://www.w3.org/2000/svg" viewBox="0 0 488.98 151.93"><g id="Layer_2" data-name="Layer 2"><g id="Layer_2-2" data-name="Layer 2"><path id="path2987" d="M127.57,151.93c-.53-1.82-2.57-3-1.89-4.71.69-.87-.24-.6-.27-1.23,0-.18.12-.23.27-.12.35.26-.15-1,.25-.84.56.07-.61-1.56.16-1.35.34,0,.36-.09.08-.45-.68-.88-.88.7-1.21,1s.08-1.35-.25-1.17-2-.27-.18-.56c2.56-1.32,3.36-3.5,6.51-3.69,3.63-1.12,10.34-1.59,10.7-5.8,2.29-.71,9.14-1.28,10.67-2.82-11.42.54-32.29-2.24-44.95.31-11.45,1.74-17,4.85-28.66,7.55-6,6-17.26-1.36-22.24,4.2.37.12.38.78-.09.53-1.55.2.47,1,1.67.08,3.78-2.41,9.94.94,1.3,1.36a82.71,82.71,0,0,1-16.91-2.08c1.44-.86-4.1-.35-3.94-1.74-.47-1.84,6.66-.45,4.17-1.58-9.29-4-19.41-2.48-28.31-1.73-2.89-.34-7.67,1.9-10.95.23-.41-.29-.32-.45.66-1.22,5-3.08,11.53-.17,10.67-5.77-.27-.65,1.43-1.36,1.93-1.67-2.45-.26-6.52-.4-8.51-.38,1.74-3.79,12.23-3.19,13.61-5.23-.33,0-1.31-.33-1.66-.43-2-1.16,6.68-3.36,2.16-3.73-3.21-1.7-10.68,1.39-11-.87,1-1.09-.5-1.28-1.07-.79-2-.4,3.61-1.54-.34-2.08-4.79-2.18,6-2.75,8.47-2.84,9.39-.07-4.64-2.63,5.1-5.77,1.53-.4-1.37-.71-1-2.11.1-.6-4.19.07-4.54.72C15.3,107,3.14,107,15.1,104.58c12.73-2.7-9-2-9.37-.84-1.48-.09.63-1.8,1.84-2.26,1.48-1.55-3.49,0-4.58.07C8.7,96.81-.38,100,0,96.47c1.56-3.5,26.84-2.76,19.17-6.41.13-1.9,15.12-4,9.4-6.45-1.83-.79.37-1.91,1.34-2,2-1-5.74-.27-3.51-1.46.76-1.17-9.33,1.94-8.85-.41C19.48,77.15,22.32,76,24.31,74c6.62-6.43,17-7.07,25.11-10.25-.74-.54-6.17-1.28-5.46-1.7,1.41-.83,3.34,0,4.65-.32,1.06,0,4.5,1.36,5,1-.55-.62-1.2-.91-1.56-1.76-1.32-.76,10.29-1.33,9.39-2-.43-.22-1.5-1.59-.13-1.67,1.54-2-9.73.39-9.43-1.11-.74-.74-1.24.15-1-1.22,1.69-2-5.45-.84-4.23-1.9,6.11-3.16,16.48-1.33,22.69-3.18,1.3-.29.75-2.76.82-3.82,2.12-2,10.18-1,14.39-2.45,7.75-1.37-5.44-.86-8.1-.82-8,.11-17.76,2.61-21.73,3.25-2.11-.78-3.71,1.21-5.4-1.23-1.47-2.1,3.54-5.48,5.13-3.9-.09-.39-2,1-1.1.7.61-.52-.17,1.1.35,1.23.52.41,1,.33.48-.09-.86-.62,2.25.18,2.17-.38.59-.59,1.83,1,1.66-1,.52-.79,2.09-1,2.81-1.75.28-.69.77.2.57-.61.11-1.85.51,1.2,1.2-.12,1-1.34.11,1.22.77.2,1-1.38-1.22-.8-1-2.06.87-1.66,3.82-1.59,5-2.63,10.86-2.22-8.72.4-7-3.34.45-.39-1.31-1.3.16-.91.44.09.66.08.47,0-1.64-1.63,2.49-.2,2.46-.54-.36.43,5.8-.78,3.16-1.29-.69.12-1.46-.91-.56-1,1.13-2.2,6.65-1.7,6.83-3.4-5.93-.85-16.47.42-21.14.27-.09-.41-.84.68-1,.29s.83-1.26,1.15-1.52c-.16.06-1.86.52-.81,0A51.88,51.88,0,0,0,62,21.68c25.07-5-19.34,1.33-24.9,1.63C40.15,19.58,54.91,18,61.7,16.64,96.59,14.57,131.41,5.52,166.1.13c.86,1,.37,1.64,1.64,1.45,1.11-.34-.59,2.4.77,1.34,1.77,0-3.22,2.35-2.56,2.64-3.39,1.83,20.76-2.87,27.76-2.92,46.46-3.82,96.92-3.36,142.53.51,10.68,0,96.21,6.19,80.32,8.57-3.34.55-53.51-4.2-40.5-1.46,8.15,2.08,25.48,1.12,32.81,4-9.77-.3-22.08-1.82-32.14-1.2-15.45,3-39.25-5.22-56.41-1.4-2.19.59,5.44,1.14,8.5,1.53C364.25,16.84,409.48,21,440.4,24.92c-4.75.73-36-1.38-34.82-.25a5.28,5.28,0,0,1,1.58.35c.48.62-3.77,1.27-2.06,1.6,5.18.38,43.45,3.41,28,5.7-3.29-.23-2.43.43,1.26,1,8.36,1.1,16.78,1.35,24.65,4.21,3.19,1,10.47,1.77,12.07,2.26-.09.86-4.67.11-1.89,1.15s-2.49,1.89,3.6,2.73c3.48,2.4,16.29,3.39,6.73,5.13-2.43,1.26-7.62-1.43-7.61,1.82,1.91.36,9.89,2.13,4.88,2.32a5.77,5.77,0,0,0-2.18.25c0,.28-7.67.21-4,1.1a80.43,80.43,0,0,1,8.26,1.48c.62-.13,2,.47-.48.58-2.92.52-8.5,1.39-1.28,2.35,4.05,1,8.2,0,4.91,2.67-6.94-.68-12.7,1.69.59,4.39,10.05,3.53-13.84-.72-14,1.33,2.81,4.71,19.53,1.7,18.88,5.48,0,1.11-3.75.9-2.31,2.95.95,1-1,2,.67,2.05,3.46,3-6-.19-6,1.13-.54,1-1.32,2.59.09,3.6,1.38.6-1.31.07,0,.67.53.28-.2.4-3,.49-2.18.17-2.11,1.93-4.13,1.75-.49,2.46,10.39,3.35,11.22,4.92-3.56,4.7-7.49,1.4-13.67,1.86-11.42-.08-.13.89,2.44,2.49.55.36.55.37-.08.77-2.67,1.56,6,3.26,2.77,5.1-3.56,4.17-10.69,1.83-15.56,3.54-6,1.39,11.52,4.24,6.73,5.71-.9,3.74-5,2.31-7.71,3.82,1.15,2.24,4.06,1.56,3,4.48.22,1.31-.29,0-.75.34-.14.39-1.4,1-1.82,1.32,4.85.92-1.92,2.37-3.32,3.45-.39,1.39-6.4-2.11-7,.18-.71,1.25-7.52-.9-7.28.22-.1.47,6.58,1.31,4.73,1.76-1.84.9,6.38,2.5,8,3a2.71,2.71,0,0,0-.14,3.45c-1.78,1.43-13-4.28-13-1-1.62.1,10.75,3.47,4,3.17-3.12,2-10.25-3.87-11.9-.14-.44,1,13.84,2.75,15.89,4.68-.05.32-7,.49-7,.54-.35.1,3.84,1.4,2.1,1.78-13.57,5.1-43.11-.16-62.93-2.51-35.33-1.77-58.42-4.23-92.87-4.88-12.27,1.5-21.16-3.23-29.63,2.43-.4,1.36-3,2.49-4.4,1.77-14.92-1.29-33.4,2.07-47.49,3.37-2.34-.45-14-.63-15.39,1.36,1.88.15,3.69,2.82,1.19,1.27-.8-.73-.83.44-1.8.46C170.73,143.37,145.43,151.39,127.57,151.93Zm0-17.65c-1.18-1.14-1,2.47,0,0Zm45.49-4c1.05-.38,1-.38-1.22-.25-5.14.3-6.75.45-6.75.64C165.09,131,171.92,130.67,173.06,130.26ZM47.66,127c0-.16-.85-.14-.81.16S47.68,127.12,47.66,127Zm19.58-.91c.15-.45-1.31-.25-1.35,0C65.74,126.54,67.19,126.33,67.24,126.09Zm-12.83-1.38c.07-.76-2.54.58-.67.36C54.11,125,54.41,124.84,54.41,124.71Zm152.75,0c2.91-1.21-9.13-.08-13.32.12C192.78,124.91,205.55,125.45,207.16,124.66Zm9.36-.83c0-.3-5.87.11-3,.37A6.55,6.55,0,0,0,216.52,123.83Zm-172.28.08c1.32,0-1.8-.88-1.43,0C43,124.41,43.8,123.81,44.24,123.91Zm176.34-.3c-2.74-.77-3.27,1,0,0Zm211.09-3.19c.46-.36-3.47-.29-1.62,0C431.23,120.72,431.49,120.72,431.67,120.42Zm-416.08-4a.57.57,0,0,0-.52,0C14.82,116.68,16.12,116.65,15.59,116.45Zm3.19-.35c1.22-.39-.68-.2-1,0C17.15,116.39,17.86,116.39,18.78,116.1Zm3.62.1c2.37-2.07-3.75-.45-1.8-.37C21.54,115.81,21.32,116.71,22.4,116.2ZM461,111.51c0-.15-.21-.27-.47-.27C459.56,111.11,461.26,112.18,461,111.51Zm-431.87-11a.54.54,0,0,0-.52,0C28.32,100.75,29.62,100.73,29.09,100.53Zm-2.21-.79c.15-1.11-4.49.71-1.22.47C26.48,100.15,26.88,100,26.88,99.74Zm5,.19c-.27-.43-1.23-.54-1.23-.14S32,100.31,31.89,99.93Zm-2-.3c.76-.43-1.83-.27-1.62,0C28.23,100,29.32,100,29.85,99.63Zm450-31.58a.27.27,0,0,0-.54,0A.27.27,0,0,0,479.86,68.05Zm2-5c-.27-.18-1.3.11-.34.14C481.85,63.15,482,63.08,481.82,63Zm-4.05-3.25a3.57,3.57,0,0,0-1.22,0C475.7,59.91,478.62,59.91,477.77,59.76Zm-12.49-2.18c-.48-.24-5.37-1.28-5.59-1C460,56.88,465.27,57.93,465.28,57.58ZM71.56,55.09c1.11-.4-1.09-.28-1.08,0C70.28,55.41,70.81,55.41,71.56,55.09Zm391.83-1.58c-.1-.3-7.86-1.29-6.32-.59C457.1,53.11,463.64,54,463.39,53.51Zm-407-3.23c.17-.34-.7-.26-.65,0S56.28,50.51,56.41,50.28Zm36.12-.5a.54.54,0,0,0-.52,0C91.76,50,93.06,50,92.53,49.78Zm-41.9-.36c0-.15-.21-.27-.47-.27C49.23,49,50.93,50.09,50.63,49.42ZM51.71,49c-.24-.48-.92.46-.27.29C51.59,49.19,51.71,49.07,51.71,49ZM67.1,47.12c2.19-.5,13.34-1.66,8.37-3.5.2-.65,12.35-.89,4.44-1.73-1.26,0-7.69,1.46-5,1.81-1.85.54-5.42,2.37-7.71,1.93C65,46.24,61.05,48.07,67.1,47.12Zm11.11-9.79a.67.67,0,0,0-.64.17C77,37.94,78.72,37.47,78.21,37.33Zm326.06-1.07c.1-.21-1.68-.44-1.48-.06S404.27,36.56,404.27,36.26ZM79,34.56c1.87,0-2.06-.85-1.89.07C77.35,35.05,78.48,34.46,79,34.56Zm323.13.06c0-.29-.82-.29-.81,0S402.12,34.91,402.11,34.62Zm1.13,0a.52.52,0,0,0-.51,0C402.47,34.89,403.77,34.86,403.24,34.66ZM83.62,34.12a.54.54,0,0,0-.52,0C82.85,34.35,84.15,34.32,83.62,34.12Zm-30.29-.36a.27.27,0,0,0-.54,0A.27.27,0,0,0,53.33,33.76Zm7-.7c-.09-.7-1.3,1.18-.41.44A1.5,1.5,0,0,0,60.35,33.06Zm2.7,0c.06-1.05-.7.31-.26.4C62.93,33.49,63.05,33.31,63.05,33.09Zm353.42-9.23a.54.54,0,0,0-.52,0C415.7,24.09,417,24.06,416.47,23.86ZM167.92,18.39c.2-.38-.34-.64-.49-.15S167.66,18.81,167.92,18.39ZM39.78,134.25c-.22-.86-1.49-1.35,1-1.38,1.91-.12-.92.67.07,1,.79,0,1.36-.37,1.24-.76-.33-.37,2.64,1.25,2.94.16C49.15,134.56,41.5,135.09,39.78,134.25Zm-3.7-.59a.45.45,0,0,1,.23-.82C36.91,133,36.89,134.22,36.08,133.66Zm5.71-2.17c-.95-.9,3-1,1.67,0C42.86,132.18,42.21,132.17,41.79,131.49Zm163.53-2c0-.07.12-.2.27-.29C206.24,129,205.56,130,205.32,129.48Zm3.16-.19c.41-.43.81-.09.16.15C208.25,129.59,208.22,129.56,208.48,129.29Zm-144.89-.74c0-.33.81-1.14,1.16-.6C65.48,128.53,63.47,129.08,63.59,128.55Zm304.78-2.46c0-.41.8-.29.94,0S368.3,126.39,368.37,126.09Zm-4.59-.29c0-.31.72-.34.91,0S363.72,126.1,363.78,125.8Zm-267.71-.44c-.7-1.2,1.78-.07,1.67.22C96.6,125.75,96.19,125.69,96.07,125.36Zm233.43-.62c-.05-.7.77.22.28.27A.27.27,0,0,1,329.5,124.74Zm-3.9-.24a.49.49,0,0,1-.05-.5C326.08,123.47,326.06,125.25,325.6,124.5Zm1,.06c-.55-.22-.38-.59.21-.44C327.56,124.29,327.53,125,326.59,124.56ZM456,123.21c-.64-.61.62-.93.63-.23C456.64,123.4,456.32,123.52,456,123.21Zm-335-1.66c-.19-.26,1-.38.77,0A.44.44,0,0,1,121,121.55Zm2.43-.46c.56-.82,3.57-.66,3-.14C127.81,121.27,122.65,121.76,123.42,121.09Zm-110.16-.65c-.2-.33.31-.65.66-.42C14.42,120.41,13.56,121,13.26,120.44Zm2.55-7a.57.57,0,0,1,.27-.42C16.53,112.8,15.77,114.28,15.81,113.42Zm2-.14c0-.22.1-.33.23-.26C18.39,113.26,17.7,114.13,17.79,113.28ZM488.23,78c-.61-.46.28-.21.54,0C489.38,78.49,488.48,78.24,488.23,78ZM44.7,58c0-.28,1.1-.28,1.07,0S44.68,58.27,44.7,58ZM56,54c-1.41-1,6.27-1.46,7.29-.68C61.09,53.08,58,55.13,56,54Zm-3.4.08a.52.52,0,0,1,.51,0C53.64,54.29,52.34,54.32,52.6,54.12Zm-4.91-3.73c0-.29.05-.45.14-.36S47.73,51.14,47.69,50.39Zm7.37-2.27c-2.35-1.65,3.19-3.22,2.86-2.21.19.73-1.23.38-.56.79,2.85.39.21.64-.92.54-.45,0-.47.07-.14.29C57,47.58,55,48.72,55.06,48.12Zm3.45-2.18c-.75-.45,1.18-1.19.54-.1A.38.38,0,0,1,58.51,45.94ZM49.15,34.57c-.2-.69,1.51.12.57.27A.73.73,0,0,1,49.15,34.57Zm5.53-1.21c.39-.46.54-.51.54-.17S54,34.05,54.68,33.36ZM436.2,29a3.74,3.74,0,0,1,2.4-.35C438.7,29.31,435.71,29.06,436.2,29Zm-1.64-.34c-.52-.35,1.47-.21,1.3,0C435.86,29,435,29,434.56,28.67Zm-6.94-.34c-.68-.44-22.08-1-16.73-1.86C410.9,26.36,437.24,27.55,427.62,28.33ZM416.69,27c0-.35-1.08-.25-1.19,0S416.77,27.24,416.69,27Zm14.44-.78c-1,0-.69-1.16.09-.25C431.58,26.5,431.44,26.66,431.13,26.2Zm-5.78-1.05c-.45-.71-4.86.33-4.49-1a36.85,36.85,0,0,1,6,.21C427.17,25.37,426.15,26.17,425.35,25.15Zm2.79.2c-.26-.43.45.16.56-.22C429.85,24.21,429,26.57,428.14,25.35Zm-315.61-2a.52.52,0,0,1,.51,0C113.57,23.52,112.27,23.55,112.53,23.34ZM167,15.68c0-.71.77.22.29.27A.29.29,0,0,1,167,15.68Zm6.3,0c-.9-.94,1.24-.39.77-1.78.31-.88,3.87-.56,3.58-1.78.25-.87,1.19.54,1.41.14.45-1,2.18.08,1.85-.36-.17-.29-.11-.34.24-.2,1.77,1.75,39.35-6.67,41.07-1.12-1.09,1.05-5.87.7-1.13,1.18,5.83.41.3,1.35-1.17.94-10.54-.2-19.9-.74-29.41.75-3.89,1.44-6.29.34-9.47,1.41-.3.85-1.77-.6-2.18-.68C178.54,15.19,174.36,15.76,173.28,15.7Zm-3.87-1.22c-.07-.9.76-.05.28.25C169.54,14.82,169.41,14.71,169.41,14.48Zm1-.47a.7.7,0,0,1,.64-.17C171.59,14,169.87,14.45,170.43,14Zm93-.68c-1.53-.39.32-.81.69-.13C264.3,13.74,263.91,13.34,263.42,13.33Zm-5.6-.62c.75-.32,1.17-.32.68,0C258.29,12.93,257,13.11,257.82,12.71Zm1.64,0c-.07-.4,1.69.31.54.25A.67.67,0,0,1,259.46,12.73Zm-34.75-.61c-.26-1,11.56-.57,9,.09-1.48.31-.39-.87-1.54.09-.81.49-3.49.5-3.43-.19C228.65,11.88,225.09,13.06,224.71,12.12Zm21.64.32c0-.7.77.22.29.27A.28.28,0,0,1,246.35,12.44Zm-10.8-.54c-.59-.41.32-.28.41,0S236.07,12.23,235.55,11.9Zm105.44,0c-1.57-.87-6.8.48-8.2-.93,3-1.57.93.32,2.58-.26.81-.9,1.58,1,1.32.08-.12-.36,0-.47.49-.47,1.25.71,4.33.49,6.25.86C346.84,11.8,341,12.35,341,11.86Zm4.43,0c.13-.45.62-.2,1.27-.37C349.66,11.51,345.23,12.6,345.42,11.85ZM326,11c-24.31-1.51-61.49.1-83.37-2.56C242.84,3.12,356.51,11,326,11ZM247.53,8.52c-.34-.8-1.07.43-.24.41C247.53,8.93,247.62,8.77,247.53,8.52Zm-15.75.93c.73-1.19-1,.31-.24-.86.32-.61.32-.66.59,0,.69,1.28,1.47.12.81-.62.55-.24,3.93-.93,4.35-.38-.32.59,1.25-.72.79.11-.12.49-.58.27-.64.68.46,1,1.86-3.39,2.23-.14.13,1.16,1.2.9-1.1,1.12-2.27.65-2.08-2.08-3.29-1C237.39,8.9,231.25,10.5,231.78,9.45Zm7.39-1c.08-.12,0-.22-.24-.22C238.32,8.22,239,9,239.17,8.43Zm-11,1.07c.36-.41.84-.78.85-1.38C229.76,8.16,228.65,10.41,228.15,9.5Zm1.65-.75c.18-.92.76.32.22.36C229.82,9.11,229.73,9,229.8,8.75Zm1-.76c.7-1.07,2.9.4,1.42.09C232.16,7.56,229.72,9,230.84,8Zm-3.58,0a.55.55,0,0,1,.51,0C228.3,8.13,227,8.16,227.26,8Zm14.23-.1c-.78-.4.61-.33.54,0S242,8.18,241.49,7.85ZM240,7.44c-.43-.8,1.75.56.53.41A.66.66,0,0,1,240,7.44Z"/></g></g></svg>